<svg width="112" height="112" viewBox="0 0 112 112" fill="none" xmlns="http://www.w3.org/2000/svg">
<path fill-rule="evenodd" clip-rule="evenodd" d="M56 112C86.9279 112 112 86.9279 112 56C112 25.0721 86.9279 0 56 0C25.0721 0 0 25.0721 0 56C0 86.9279 25.0721 112 56 112ZM56.2411 28C51.7446 28 45.5219 30.5715 42.3424 33.7436L33.7068 42.359H76.75L91.1427 28H56.2411ZM69.5851 78.2564C66.4055 81.4285 60.1828 84 55.6863 84H20.7848L35.1774 69.641H78.2206L69.5851 78.2564ZM83.5744 49.5385H26.5261L23.8313 52.2308C17.4505 57.9744 19.343 62.4616 28.279 62.4616H85.4818L88.1775 59.7693C94.4961 54.0595 92.5104 49.5385 83.5744 49.5385Z" fill="#4338CA"/>
</svg>
